HIERARCHY
ROOT Hips
{
    OFFSET 0.000000 0.000000 0.000000
    CHANNELS 6 Xposition Yposition Zposition Zrotation Xrotation Yrotation
    JOINT Spine
    {
        OFFSET -0.000000 0.077018 0.000000
        CHANNELS 3 Zrotation Xrotation Yrotation
        JOINT Spine1
        {
            OFFSET -0.000000 0.227494 0.000000
            CHANNELS 3 Zrotation Xrotation Yrotation
            JOINT Neck
            {
                OFFSET -0.000000 0.246279 0.000000
                CHANNELS 3 Zrotation Xrotation Yrotation
                JOINT Head
                {
                    OFFSET -0.000000 0.145582 0.018785
                    CHANNELS 3 Zrotation Xrotation Yrotation
                    End Site
                    {
                        OFFSET -0.000000 0.187848 0.000000
                    }
                }
            }
            JOINT LeftShoulder
            {
                OFFSET 0.037687 0.203731 -0.002326
                CHANNELS 3 Zrotation Xrotation Yrotation
                JOINT LeftArm
                {
                    OFFSET 0.129096 0.000000 0.000000
                    CHANNELS 3 Zrotation Xrotation Yrotation
                    JOINT LeftForeArm
                    {
                        OFFSET 0.264347 0.000000 0.000000
                        CHANNELS 3 Zrotation Xrotation Yrotation
                        JOINT LeftHand
                        {
                            OFFSET 0.234160 0.000000 0.000000
                            CHANNELS 3 Zrotation Xrotation Yrotation
                            End Site
                            {
                                OFFSET 0.140886 0.000000 0.000000
                            }
                        }
                    }
                }
            }
            JOINT RightShoulder
            {
                OFFSET -0.037440 0.203731 -0.002326
                CHANNELS 3 Zrotation Xrotation Yrotation
                JOINT RightArm
                {
                    OFFSET -0.129096 0.000000 0.000000
                    CHANNELS 3 Zrotation Xrotation Yrotation
                    JOINT RightForeArm
                    {
                        OFFSET -0.264347 0.000000 0.000000
                        CHANNELS 3 Zrotation Xrotation Yrotation
                        JOINT RightHand
                        {
                            OFFSET -0.234160 0.000000 0.000000
                            CHANNELS 3 Zrotation Xrotation Yrotation
                            End Site
                            {
                                OFFSET -0.140886 0.000000 0.000000
                            }
                        }
                    }
                }
            }
        }
    }
    JOINT LeftUpLeg
    {
        OFFSET 0.093924 0.000000 0.000000
        CHANNELS 3 Zrotation Xrotation Yrotation
        JOINT LeftLeg
        {
            OFFSET -0.000000 -0.358527 0.000000
            CHANNELS 3 Zrotation Xrotation Yrotation
            JOINT LeftFoot
            {
                OFFSET -0.000000 -0.390599 0.000000
                CHANNELS 3 Zrotation Xrotation Yrotation
                JOINT LeftToeBase
                {
                    OFFSET -0.000000 -0.061050 0.140886
                    CHANNELS 3 Zrotation Xrotation Yrotation
                    End Site
                    {
                        OFFSET -0.000000 0.000000 0.037570
                    }
                }
            }
        }
    }
    JOINT RightUpLeg
    {
        OFFSET -0.093924 0.000000 0.000000
        CHANNELS 3 Zrotation Xrotation Yrotation
        JOINT RightLeg
        {
            OFFSET -0.000000 -0.358527 0.000000
            CHANNELS 3 Zrotation Xrotation Yrotation
            JOINT RightFoot
            {
                OFFSET -0.000000 -0.390599 0.000000
                CHANNELS 3 Zrotation Xrotation Yrotation
                JOINT RightToeBase
                {
                    OFFSET -0.000000 -0.061050 0.140886
                    CHANNELS 3 Zrotation Xrotation Yrotation
                    End Site
                    {
                        OFFSET -0.000000 0.000000 0.037570
                    }
                }
            }
        }
    }
}
MOTION
Frames:    11
Frame Time:    0.008333
0.696688    0.480416    0.045056    -26.252590    -2.004013    -84.532890    0.478234    28.711905    -2.031166    1.713944    8.003235    -0.765917    -5.691269    12.911465    1.593836    -0.153483    27.574898    0.297796    4.697221    -1.364627    -0.353087    -75.666847    37.483856    -5.181530    5.280868    -14.084815    -28.212284    2.352566    1.275717    10.330717    -0.247711    -1.858305    0.312724    67.103882    47.990154    8.444509    -6.664193    -35.590061    23.491524    -4.489186    -0.009229    -6.929812    2.014965    -63.226780    9.072883    38.296257    82.306114    -29.882133    3.584031    4.517805    -8.025165    -0.118247    -2.560641    -0.327311    -24.693583    -61.360130    -26.485825    -97.916527    86.422745    92.678665    0.201622    -1.148842    3.135644    0.037622    -0.582773    -0.527431    
0.696717    0.480435    0.045054    -26.247824    -2.004560    -84.536690    0.477815    28.716131    -2.035906    1.724334    7.997524    -0.768155    -5.710151    12.862088    1.707322    -0.026813    28.183212    0.366617    4.689372    -1.370803    -0.340614    -75.666374    37.481888    -5.175020    5.264266    -14.045852    -28.155928    2.345723    1.285096    10.343378    -0.241238    -1.870999    0.297591    67.085289    48.034302    8.465957    -6.676200    -35.589355    23.440102    -4.474207    -0.012075    -6.934329    2.016923    -63.227959    9.074486    38.264690    82.299896    -29.849623    3.579522    4.525136    -8.029567    -0.118556    -2.561157    -0.326375    -24.706181    -61.359741    -26.502775    -97.799530    86.424667    92.555016    0.196070    -1.149781    3.150221    0.037927    -0.575652    -0.526198    
0.696694    0.480459    0.045072    -26.257944    -2.007514    -84.544785    0.485388    28.725367    -2.042438    1.718694    8.002843    -0.769343    -5.676068    12.835723    1.787507    -0.014387    28.734987    0.454771    4.712685    -1.380584    -0.341173    -75.707748    37.485783    -5.151360    5.270326    -14.018136    -28.090096    2.317497    1.283692    10.363118    -0.230926    -1.876864    0.277947    67.057388    48.063499    8.503498    -6.671286    -35.595463    23.392771    -4.665848    0.200292    -6.892878    2.016209    -63.211758    9.074796    38.248981    82.300606    -29.827585    3.580414    4.517373    -8.029130    -0.118484    -2.557527    -0.325536    -24.709064    -61.346298    -26.510954    -97.758385    86.421440    92.516060    0.186711    -1.146767    3.157237    0.036985    -0.582748    -0.522887    
0.696709    0.480493    0.045060    -26.249294    -2.001171    -84.547585    0.489513    28.718914    -2.047228    1.731111    8.009157    -0.771732    -5.699679    12.787072    1.905954    0.108297    29.262157    0.527238    4.710317    -1.388756    -0.322764    -75.717583    37.501953    -5.151185    5.269740    -14.004211    -28.018551    2.301290    1.301060    10.369184    -0.222624    -1.891953    0.260887    67.043892    48.097801    8.519363    -6.694003    -35.589565    23.347281    -4.646943    0.190884    -6.889287    2.012487    -63.217010    9.060092    38.228382    82.296608    -29.814123    3.577893    4.517937    -8.013438    -0.117439    -2.554603    -0.328333    -24.706001    -61.350033    -26.512276    -97.648064    86.426529    92.418015    0.186320    -1.145980    3.149551    0.037109    -0.572792    -0.519011    
0.696687    0.480499    0.045081    -26.253931    -2.010476    -84.556305    0.489985    28.725126    -2.053315    1.727756    8.015391    -0.773497    -5.698425    12.732075    1.995348    0.147267    29.757290    0.607266    4.715490    -1.385273    -0.313501    -75.728241    37.483482    -5.148462    5.265997    -13.956691    -27.950607    2.278012    1.280457    10.371732    -0.217297    -1.895638    0.246242    67.039955    48.084297    8.534960    -6.683738    -35.567669    23.333748    -4.665359    0.186196    -6.893882    1.998826    -63.206989    9.052138    38.206257    82.297165    -29.787819    3.573537    4.514307    -8.007220    -0.118320    -2.543911    -0.322002    -24.718315    -61.346416    -26.515873    -97.694611    86.425652    92.462540    0.186216    -1.144217    3.165422    0.037755    -0.582132    -0.528068    
0.696670    0.480512    0.045090    -26.252934    -2.012587    -84.560654    0.497448    28.721588    -2.063016    1.728720    8.029494    -0.776351    -5.692781    12.698852    2.093333    0.159615    30.132759    0.706181    4.715791    -1.388149    -0.307019    -75.745987    37.453102    -5.133445    5.247652    -13.934019    -27.896418    2.289247    1.291626    10.375380    -0.214093    -1.900204    0.231485    67.036362    48.075569    8.554920    -6.687624    -35.558647    23.314594    -4.665592    0.186709    -6.899561    1.981855    -63.206257    9.034231    38.226341    82.296120    -29.794518    3.572621    4.513186    -8.011975    -0.118233    -2.548313    -0.323639    -24.725769    -61.344353    -26.514967    -97.700104    86.436684    92.473854    0.181170    -1.144387    3.160246    0.036291    -0.586028    -0.519518    
0.696658    0.480525    0.045087    -26.242342    -2.005012    -84.565613    0.514086    28.708517    -2.075584    1.729752    8.044315    -0.779374    -5.691085    12.652874    2.191461    0.164418    30.463224    0.807877    4.718796    -1.382092    -0.290347    -75.760590    37.447269    -5.127064    5.264672    -13.872629    -27.833479    2.297828    1.266112    10.367171    -0.223037    -1.908625    0.221041    67.061523    48.072262    8.556225    -6.694599    -35.568604    23.311085    -4.676651    0.195795    -6.891369    1.974383    -63.217361    9.024226    38.302921    82.290337    -29.868069    3.569389    4.513864    -8.006917    -0.118190    -2.553644    -0.325399    -24.716425    -61.354881    -26.504436    -97.693092    86.443886    92.468040    0.185162    -1.143809    3.158374    0.034698    -0.589154    -0.509669    
0.696625    0.480515    0.045100    -26.246233    -2.014975    -84.576645    0.508394    28.706898    -2.078540    1.738496    8.070730    -0.781905    -5.685257    12.592963    2.275051    0.130148    30.732735    0.911482    4.714215    -1.379997    -0.283183    -75.773735    37.448013    -5.106238    5.262315    -13.885465    -27.811657    2.289991    1.272903    10.383648    -0.236844    -1.913987    0.207835    67.081589    48.042908    8.559369    -6.693813    -35.538906    23.323591    -4.699221    0.183895    -6.875995    1.954519    -63.211361    9.015455    38.364365    82.289520    -29.921476    3.560906    4.507470    -7.996720    -0.117001    -2.544669    -0.326878    -24.714439    -61.356895    -26.487511    -97.784874    86.446251    92.559792    0.179250    -1.145596    3.159664    0.034757    -0.583278    -0.507288    
0.696600    0.480504    0.045111    -26.236897    -2.016557    -84.584579    0.509883    28.693464    -2.091538    1.752356    8.092264    -0.787281    -5.680398    12.544128    2.368686    0.070979    30.917418    1.034658    4.706841    -1.367931    -0.269612    -75.786049    37.461346    -5.084195    5.260087    -13.914455    -27.805794    2.286578    1.272079    10.406096    -0.259249    -1.913169    0.208279    67.104881    48.030190    8.566116    -6.702160    -35.527222    23.333094    -4.726862    0.179373    -6.864316    1.941256    -63.221550    9.003949    38.416206    82.290421    -29.958231    3.559752    4.504714    -8.002481    -0.116527    -2.534905    -0.325603    -24.713772    -61.374146    -26.483131    -97.905273    86.444595    92.692276    0.170664    -1.144836    3.146275    0.035696    -0.584655    -0.514629    
0.696592    0.480493    0.045110    -26.233049    -2.018116    -84.598412    0.500677    28.694803    -2.092278    1.777092    8.105481    -0.790263    -5.706503    12.505588    2.458431    0.057914    31.011822    1.127892    4.692892    -1.355053    -0.259162    -75.790802    37.385414    -5.078126    5.227358    -13.857893    -27.786325    2.325642    1.288778    10.397097    -0.272687    -1.918961    0.197199    67.105186    48.024670    8.572505    -6.689494    -35.521774    23.361403    -4.736434    0.174781    -6.849365    1.940957    -63.225700    9.014630    38.505722    82.284180    -30.063025    3.552129    4.507945    -7.973471    -0.115524    -2.520241    -0.324710    -24.694584    -61.387035    -26.452175    -97.924713    86.449448    92.695145    0.172594    -1.140195    3.167201    0.036652    -0.577754    -0.518134    
0.696573    0.480478    0.045108    -26.225502    -2.017741    -84.605461    0.502412    28.681349    -2.101004    1.796640    8.137833    -0.794854    -5.716217    12.463839    2.543279    0.004111    31.046923    1.236331    4.675588    -1.346341    -0.247627    -75.789085    37.382439    -5.062582    5.236140    -13.850411    -27.784273    2.309359    1.280124    10.404840    -0.296447    -1.918311    0.189015    67.124649    47.960487    8.575009    -6.661162    -35.476990    23.417271    -4.761234    0.173434    -6.830652    1.932194    -63.234913    9.012501    38.608311    82.279373    -30.155914    3.546671    4.509082    -7.977507    -0.119196    -2.542532    -0.318503    -24.686928    -61.397648    -26.443747    -97.939636    86.450111    92.702110    0.176460    -1.139987    3.173991    0.037288    -0.584286    -0.525779    
